<?xml version="1.0" standalone="no"?><!DOCTYPE svg PUBLIC "-//W3C//DTD SVG 1.1//EN" "http://www.w3.org/Graphics/SVG/1.1/DTD/svg11.dtd"><svg t="1598595975008" class="icon" viewBox="0 0 1024 1024" version="1.1" xmlns="http://www.w3.org/2000/svg" p-id="4647" xmlns:xlink="http://www.w3.org/1999/xlink" width="200" height="200"><defs><style type="text/css"></style></defs><path d="M990.848 409.088c0-25.472-5.12-50.048-15.36-73.088-0.384-1.024-0.896-2.176-1.28-3.072l-92.928-208.64c-13.696-30.72-48.384-53.888-80.64-53.888H223.616c-32.896 0-66.816 22.656-80.64 53.888L50.176 332.8c-0.64 1.28-1.024 2.432-1.536 3.584-10.112 22.912-15.232 47.36-15.232 72.576 0 69.504 39.424 129.92 97.152 160.128v333.44c0 27.392 22.272 49.664 49.664 49.664h663.808c27.392 0 49.664-22.272 49.664-49.664V569.216c57.6-30.208 97.152-90.624 97.152-160.128zM829.696 888.32H194.56V588.672c6.4 0.64 12.928 1.024 19.584 1.024 61.696 0 116.224-31.104 148.864-78.464 32.64 47.36 87.168 78.464 148.864 78.464 61.824 0 116.48-31.232 149.12-78.72 32.64 47.488 87.296 78.72 149.12 78.72 6.656 0 13.056-0.384 19.584-1.024V888.32z m-19.584-362.496c-64.384 0-116.736-52.352-116.736-116.736v-32h-64.768v32c0 64.384-52.352 116.736-116.736 116.736s-116.736-52.352-116.736-116.736v-32h-64.384v32c0 64.384-52.352 116.736-116.736 116.736S97.28 473.472 97.28 409.088c0-16.512 3.328-32.384 9.984-47.232l0.64-1.408c0.128-0.512 0.384-0.896 0.64-1.408l92.8-208.512c3.712-8.448 15.488-16 22.272-16h577.024c6.656 0 18.432 7.552 22.144 15.872l92.8 208.64c0.256 0.512 0.512 1.024 0.64 1.536l0.384 1.024c6.656 14.976 10.112 30.848 10.112 47.488 0.128 64.384-52.224 116.736-116.608 116.736z" p-id="4648"></path><path d="M773.76 192.768H250.496c-17.664 0-32 14.336-32 32s14.336 32 32 32h523.136c17.664 0 32-14.336 32-32s-14.208-32-31.872-32z" p-id="4649"></path></svg>